<svg width="1887.7" height="95.7" viewBox="0 0 1887.7 95.7" xmlns="http://www.w3.org/2000/svg"><g id="svgGroup" stroke-linecap="round" fill-rule="evenodd" font-size="9pt" stroke="#000" stroke-width="0.25mm" fill="#000" style="stroke:#000;stroke-width:0.25mm;fill:#000"><path d="M 611.5 77.7 L 601.6 77.7 L 592.6 22.7 L 600.4 22.7 L 606 61.5 Q 606.3 63.7 606.6 66.35 Q 606.868 68.721 606.977 70.331 A 44.008 44.008 0 0 1 607 70.7 Q 607.179 69.18 607.398 66.899 A 339.423 339.423 0 0 0 607.45 66.35 Q 607.7 63.7 608.1 61.5 L 615 22.7 L 624 22.7 L 630.9 61.5 Q 631.3 63.7 631.65 66.35 Q 631.963 68.721 632.076 70.331 A 32.685 32.685 0 0 1 632.1 70.7 A 613.161 613.161 0 0 0 632.206 69.791 Q 632.351 68.542 632.538 66.899 A 1791.598 1791.598 0 0 0 632.6 66.35 Q 632.9 63.7 633.2 61.5 L 639 22.7 L 646.4 22.7 L 637 77.7 L 627.1 77.7 L 620.8 39.7 Q 620.4 36.9 620.05 33.75 Q 619.782 31.339 619.602 29.777 A 380.398 380.398 0 0 0 619.5 28.9 A 36.69 36.69 0 0 1 619.431 29.841 Q 619.341 30.904 619.171 32.353 A 148.166 148.166 0 0 1 619 33.75 Q 618.6 36.9 618.1 39.7 L 611.5 77.7 Z M 1331.5 77.7 L 1321.6 77.7 L 1312.6 22.7 L 1320.4 22.7 L 1326 61.5 Q 1326.3 63.7 1326.6 66.35 Q 1326.868 68.721 1326.977 70.331 A 44.008 44.008 0 0 1 1327 70.7 Q 1327.179 69.18 1327.398 66.899 A 339.423 339.423 0 0 0 1327.45 66.35 Q 1327.7 63.7 1328.1 61.5 L 1335 22.7 L 1344 22.7 L 1350.9 61.5 Q 1351.3 63.7 1351.65 66.35 Q 1351.963 68.721 1352.076 70.331 A 32.685 32.685 0 0 1 1352.1 70.7 A 613.161 613.161 0 0 0 1352.206 69.791 Q 1352.351 68.542 1352.538 66.899 A 1791.598 1791.598 0 0 0 1352.6 66.35 Q 1352.9 63.7 1353.2 61.5 L 1359 22.7 L 1366.4 22.7 L 1357 77.7 L 1347.1 77.7 L 1340.8 39.7 Q 1340.4 36.9 1340.05 33.75 Q 1339.782 31.339 1339.602 29.777 A 380.398 380.398 0 0 0 1339.5 28.9 A 36.69 36.69 0 0 1 1339.431 29.841 Q 1339.341 30.904 1339.171 32.353 A 148.166 148.166 0 0 1 1339 33.75 Q 1338.6 36.9 1338.1 39.7 L 1331.5 77.7 Z M 787.7 77.7 L 778.7 77.7 L 778.7 4.7 L 787.7 4.7 L 787.7 33.2 L 787.8 33.2 Q 788.5 27.7 792.3 24.7 A 13.245 13.245 0 0 1 797.204 22.316 Q 799.106 21.816 801.348 21.722 A 25.161 25.161 0 0 1 802.4 21.7 A 21.828 21.828 0 0 1 808.147 22.417 A 15.934 15.934 0 0 1 815.6 26.8 A 16.996 16.996 0 0 1 819.867 34.853 Q 820.5 37.538 820.5 40.7 L 820.5 77.7 L 811.5 77.7 L 811.5 42.2 A 19.549 19.549 0 0 0 811.161 38.441 Q 810.738 36.284 809.787 34.606 A 10.144 10.144 0 0 0 808.35 32.65 A 10.416 10.416 0 0 0 802.359 29.51 A 14.996 14.996 0 0 0 799.8 29.3 A 14.435 14.435 0 0 0 795.967 29.782 A 10.5 10.5 0 0 0 790.95 32.8 Q 788.075 35.897 787.743 41.264 A 23.316 23.316 0 0 0 787.7 42.7 L 787.7 77.7 Z M 1627.7 77.7 L 1618.7 77.7 L 1618.7 4.7 L 1627.7 4.7 L 1627.7 33.2 L 1627.8 33.2 Q 1628.5 27.7 1632.3 24.7 A 13.245 13.245 0 0 1 1637.204 22.316 Q 1639.106 21.816 1641.348 21.722 A 25.161 25.161 0 0 1 1642.4 21.7 A 21.828 21.828 0 0 1 1648.147 22.417 A 15.934 15.934 0 0 1 1655.6 26.8 A 16.996 16.996 0 0 1 1659.867 34.853 Q 1660.5 37.538 1660.5 40.7 L 1660.5 77.7 L 1651.5 77.7 L 1651.5 42.2 A 19.549 19.549 0 0 0 1651.161 38.441 Q 1650.738 36.284 1649.787 34.606 A 10.144 10.144 0 0 0 1648.35 32.65 A 10.416 10.416 0 0 0 1642.359 29.51 A 14.996 14.996 0 0 0 1639.8 29.3 A 14.435 14.435 0 0 0 1635.967 29.782 A 10.5 10.5 0 0 0 1630.95 32.8 Q 1628.075 35.897 1627.743 41.264 A 23.316 23.316 0 0 0 1627.7 42.7 L 1627.7 77.7 Z M 428.2 77.7 L 419.2 77.7 L 419.2 4.7 L 428.2 4.7 L 428.2 45.4 L 438.7 45.4 L 454.1 22.7 L 464.4 22.7 L 446.7 48.9 L 465.4 77.7 L 454.9 77.7 L 438.9 53.2 L 428.2 53.2 L 428.2 77.7 Z M 1148.2 77.7 L 1139.2 77.7 L 1139.2 4.7 L 1148.2 4.7 L 1148.2 45.4 L 1158.7 45.4 L 1174.1 22.7 L 1184.4 22.7 L 1166.7 48.9 L 1185.4 77.7 L 1174.9 77.7 L 1158.9 53.2 L 1148.2 53.2 L 1148.2 77.7 Z M 187.7 77.7 L 178.7 77.7 L 178.7 22.7 L 187.7 22.7 L 187.7 33.2 L 187.8 33.2 Q 188.5 27.7 192.3 24.7 A 13.245 13.245 0 0 1 197.204 22.316 Q 199.106 21.816 201.348 21.722 A 25.161 25.161 0 0 1 202.4 21.7 A 21.828 21.828 0 0 1 208.147 22.417 A 15.934 15.934 0 0 1 215.6 26.8 A 16.996 16.996 0 0 1 219.867 34.853 Q 220.5 37.538 220.5 40.7 L 220.5 77.7 L 211.5 77.7 L 211.5 42.3 A 20.186 20.186 0 0 0 211.177 38.567 Q 210.491 34.927 208.35 32.65 A 10.416 10.416 0 0 0 202.359 29.51 A 14.996 14.996 0 0 0 199.8 29.3 A 14.435 14.435 0 0 0 195.967 29.782 A 10.5 10.5 0 0 0 190.95 32.8 Q 188.075 35.897 187.743 41.264 A 23.316 23.316 0 0 0 187.7 42.7 L 187.7 77.7 Z M 487.7 77.7 L 478.7 77.7 L 478.7 22.7 L 487.7 22.7 L 487.7 33.2 L 487.8 33.2 Q 488.5 27.7 492.3 24.7 A 13.245 13.245 0 0 1 497.204 22.316 Q 499.106 21.816 501.348 21.722 A 25.161 25.161 0 0 1 502.4 21.7 A 21.828 21.828 0 0 1 508.147 22.417 A 15.934 15.934 0 0 1 515.6 26.8 A 16.996 16.996 0 0 1 519.867 34.853 Q 520.5 37.538 520.5 40.7 L 520.5 77.7 L 511.5 77.7 L 511.5 42.3 A 20.186 20.186 0 0 0 511.177 38.567 Q 510.491 34.927 508.35 32.65 A 10.416 10.416 0 0 0 502.359 29.51 A 14.996 14.996 0 0 0 499.8 29.3 A 14.435 14.435 0 0 0 495.967 29.782 A 10.5 10.5 0 0 0 490.95 32.8 Q 488.075 35.897 487.743 41.264 A 23.316 23.316 0 0 0 487.7 42.7 L 487.7 77.7 Z M 1207.7 77.7 L 1198.7 77.7 L 1198.7 22.7 L 1207.7 22.7 L 1207.7 33.2 L 1207.8 33.2 Q 1208.5 27.7 1212.3 24.7 A 13.245 13.245 0 0 1 1217.204 22.316 Q 1219.106 21.816 1221.348 21.722 A 25.161 25.161 0 0 1 1222.4 21.7 A 21.828 21.828 0 0 1 1228.147 22.417 A 15.934 15.934 0 0 1 1235.6 26.8 A 16.996 16.996 0 0 1 1239.867 34.853 Q 1240.5 37.538 1240.5 40.7 L 1240.5 77.7 L 1231.5 77.7 L 1231.5 42.3 A 20.186 20.186 0 0 0 1231.177 38.567 Q 1230.491 34.927 1228.35 32.65 A 10.416 10.416 0 0 0 1222.359 29.51 A 14.996 14.996 0 0 0 1219.8 29.3 A 14.435 14.435 0 0 0 1215.967 29.782 A 10.5 10.5 0 0 0 1210.95 32.8 Q 1208.075 35.897 1207.743 41.264 A 23.316 23.316 0 0 0 1207.7 42.7 L 1207.7 77.7 Z M 1447.7 77.7 L 1438.7 77.7 L 1438.7 22.7 L 1447.7 22.7 L 1447.7 33.2 L 1447.8 33.2 Q 1448.5 27.7 1452.3 24.7 A 13.245 13.245 0 0 1 1457.204 22.316 Q 1459.106 21.816 1461.348 21.722 A 25.161 25.161 0 0 1 1462.4 21.7 A 21.828 21.828 0 0 1 1468.147 22.417 A 15.934 15.934 0 0 1 1475.6 26.8 A 16.996 16.996 0 0 1 1479.867 34.853 Q 1480.5 37.538 1480.5 40.7 L 1480.5 77.7 L 1471.5 77.7 L 1471.5 42.3 A 20.186 20.186 0 0 0 1471.177 38.567 Q 1470.491 34.927 1468.35 32.65 A 10.416 10.416 0 0 0 1462.359 29.51 A 14.996 14.996 0 0 0 1459.8 29.3 A 14.435 14.435 0 0 0 1455.967 29.782 A 10.5 10.5 0 0 0 1450.95 32.8 Q 1448.075 35.897 1447.743 41.264 A 23.316 23.316 0 0 0 1447.7 42.7 L 1447.7 77.7 Z M 1747.7 77.7 L 1738.7 77.7 L 1738.7 22.7 L 1747.7 22.7 L 1747.7 33.2 L 1747.8 33.2 Q 1748.5 27.7 1752.3 24.7 A 13.245 13.245 0 0 1 1757.204 22.316 Q 1759.106 21.816 1761.348 21.722 A 25.161 25.161 0 0 1 1762.4 21.7 A 21.828 21.828 0 0 1 1768.147 22.417 A 15.934 15.934 0 0 1 1775.6 26.8 A 16.996 16.996 0 0 1 1779.867 34.853 Q 1780.5 37.538 1780.5 40.7 L 1780.5 77.7 L 1771.5 77.7 L 1771.5 42.3 A 20.186 20.186 0 0 0 1771.177 38.567 Q 1770.491 34.927 1768.35 32.65 A 10.416 10.416 0 0 0 1762.359 29.51 A 14.996 14.996 0 0 0 1759.8 29.3 A 14.435 14.435 0 0 0 1755.967 29.782 A 10.5 10.5 0 0 0 1750.95 32.8 Q 1748.075 35.897 1747.743 41.264 A 23.316 23.316 0 0 0 1747.7 42.7 L 1747.7 77.7 Z M 1821 95.7 L 1805.6 95.7 L 1805.6 87.5 L 1821.1 87.5 A 13.43 13.43 0 0 0 1824.189 87.165 A 8.952 8.952 0 0 0 1828.5 84.85 A 8.811 8.811 0 0 0 1830.986 80.085 A 12.717 12.717 0 0 0 1831.2 77.7 L 1831.2 72.7 L 1831.4 63.7 L 1831.1 63.7 A 11.787 11.787 0 0 1 1829.669 67.8 A 10.67 10.67 0 0 1 1826.4 71.25 A 14.794 14.794 0 0 1 1821.222 73.429 Q 1819.089 73.9 1816.6 73.9 A 21.525 21.525 0 0 1 1810.787 73.157 A 15.767 15.767 0 0 1 1803.2 68.5 A 18.018 18.018 0 0 1 1799.172 60.92 Q 1798.436 58.174 1798.321 54.922 A 34.585 34.585 0 0 1 1798.3 53.7 L 1798.3 42.1 Q 1798.3 34.129 1801.824 28.962 A 17.295 17.295 0 0 1 1803.2 27.2 A 16.115 16.115 0 0 1 1813.235 21.936 A 23.157 23.157 0 0 1 1816.6 21.7 A 20.475 20.475 0 0 1 1821.024 22.154 A 14.452 14.452 0 0 1 1826.4 24.5 A 11.322 11.322 0 0 1 1831.074 32.048 A 14.403 14.403 0 0 1 1831.1 32.2 L 1831.3 32.2 L 1831.3 22.7 L 1840.2 22.7 L 1840.2 77.7 A 21.571 21.571 0 0 1 1839.483 83.413 A 15.709 15.709 0 0 1 1835.05 90.85 Q 1829.9 95.7 1821 95.7 Z M 39 77.7 L 0 77.7 L 0 69.5 L 14.9 69.5 L 14.9 12.9 L 0 12.9 L 0 4.7 L 39 4.7 L 39 12.9 L 24.1 12.9 L 24.1 69.5 L 39 69.5 L 39 77.7 Z M 1059 77.7 L 1020 77.7 L 1020 69.5 L 1034.9 69.5 L 1034.9 12.9 L 1020 12.9 L 1020 4.7 L 1059 4.7 L 1059 12.9 L 1044.1 12.9 L 1044.1 69.5 L 1059 69.5 L 1059 77.7 Z M 316.7 95.7 L 307.3 95.7 L 315.4 74.3 L 294.9 22.7 L 304.6 22.7 L 317.6 56.7 A 60.807 60.807 0 0 1 318.923 60.353 A 67.479 67.479 0 0 1 319.1 60.9 Q 319.636 62.585 319.937 63.917 A 21.576 21.576 0 0 1 320.1 64.7 Q 320.33 63.475 320.794 61.899 A 48.044 48.044 0 0 1 321.1 60.9 Q 321.8 58.7 322.5 56.7 L 334.6 22.7 L 344.1 22.7 L 316.7 95.7 Z M 761 77.7 L 745 77.7 A 19.004 19.004 0 0 1 740.28 77.145 A 13.593 13.593 0 0 1 734.1 73.75 A 13.16 13.16 0 0 1 730.21 66.055 A 18.649 18.649 0 0 1 730 63.2 L 730 30.9 L 714.2 30.9 L 714.2 22.7 L 730 22.7 L 730 7.2 L 739 7.2 L 739 22.7 L 761.5 22.7 L 761.5 30.9 L 739 30.9 L 739 63.2 A 7.766 7.766 0 0 0 739.252 65.228 A 5.828 5.828 0 0 0 740.65 67.75 A 5.493 5.493 0 0 0 744.162 69.455 A 7.614 7.614 0 0 0 745 69.5 L 761 69.5 L 761 77.7 Z M 941 77.7 L 925 77.7 A 19.004 19.004 0 0 1 920.28 77.145 A 13.593 13.593 0 0 1 914.1 73.75 A 13.16 13.16 0 0 1 910.21 66.055 A 18.649 18.649 0 0 1 910 63.2 L 910 30.9 L 894.2 30.9 L 894.2 22.7 L 910 22.7 L 910 7.2 L 919 7.2 L 919 22.7 L 941.5 22.7 L 941.5 30.9 L 919 30.9 L 919 63.2 A 7.766 7.766 0 0 0 919.252 65.228 A 5.828 5.828 0 0 0 920.65 67.75 A 5.493 5.493 0 0 0 924.162 69.455 A 7.614 7.614 0 0 0 925 69.5 L 941 69.5 L 941 77.7 Z M 1601 77.7 L 1585 77.7 A 19.004 19.004 0 0 1 1580.28 77.145 A 13.593 13.593 0 0 1 1574.1 73.75 A 13.16 13.16 0 0 1 1570.21 66.055 A 18.649 18.649 0 0 1 1570 63.2 L 1570 30.9 L 1554.2 30.9 L 1554.2 22.7 L 1570 22.7 L 1570 7.2 L 1579 7.2 L 1579 22.7 L 1601.5 22.7 L 1601.5 30.9 L 1579 30.9 L 1579 63.2 A 7.766 7.766 0 0 0 1579.252 65.228 A 5.828 5.828 0 0 0 1580.65 67.75 A 5.493 5.493 0 0 0 1584.162 69.455 A 7.614 7.614 0 0 0 1585 69.5 L 1601 69.5 L 1601 77.7 Z M 854.3 44.5 L 871.3 44.5 L 871.3 40.2 A 13.979 13.979 0 0 0 870.668 35.804 Q 868.581 29.5 859.6 29.5 A 23.345 23.345 0 0 0 856.261 29.725 Q 853.3 30.153 851.2 31.4 A 7.765 7.765 0 0 0 849.304 32.941 A 6.077 6.077 0 0 0 847.8 36.7 L 838.8 36.7 Q 839.3 30.2 844.85 25.95 A 19.494 19.494 0 0 1 851.777 22.634 Q 855.288 21.7 859.6 21.7 A 33.398 33.398 0 0 1 865.529 22.193 Q 868.783 22.781 871.357 24.07 A 16.237 16.237 0 0 1 874.95 26.5 A 15.702 15.702 0 0 1 879.9 35.481 A 23.252 23.252 0 0 1 880.3 39.9 L 880.3 77.7 L 871.4 77.7 L 871.4 67.7 L 871.2 67.7 A 11.526 11.526 0 0 1 866.431 75.517 A 14.227 14.227 0 0 1 866.1 75.75 A 15.616 15.616 0 0 1 861.277 77.916 Q 859.181 78.48 856.7 78.638 A 31.374 31.374 0 0 1 854.7 78.7 A 24.638 24.638 0 0 1 849.043 78.087 A 16.71 16.71 0 0 1 841.2 73.95 A 15.846 15.846 0 0 1 836.31 63.721 A 21.841 21.841 0 0 1 836.2 61.5 A 19.076 19.076 0 0 1 836.757 56.795 A 15.336 15.336 0 0 1 838.5 52.6 Q 840.8 48.8 844.9 46.65 A 18.738 18.738 0 0 1 851.259 44.69 A 23.739 23.739 0 0 1 854.3 44.5 Z M 284.5 77.7 L 267.5 77.7 A 20.292 20.292 0 0 1 262.464 77.109 A 14.37 14.37 0 0 1 255.85 73.45 A 14.205 14.205 0 0 1 251.708 65.131 A 19.917 19.917 0 0 1 251.5 62.2 L 251.5 12.9 L 232.5 12.9 L 232.5 4.7 L 260.5 4.7 L 260.5 62.2 Q 260.5 65.6 262.4 67.55 A 6.33 6.33 0 0 0 265.959 69.375 A 9.061 9.061 0 0 0 267.5 69.5 L 284.5 69.5 L 284.5 77.7 Z M 1725 77.7 L 1678 77.7 L 1678 69.5 L 1697.5 69.5 L 1697.5 30.9 L 1680 30.9 L 1680 22.7 L 1706.5 22.7 L 1706.5 69.5 L 1725 69.5 L 1725 77.7 Z M 117.9 56.5 L 117.9 43.9 A 30.497 30.497 0 0 1 118.555 37.382 Q 119.482 33.143 121.724 29.981 A 17.646 17.646 0 0 1 123.7 27.65 A 19.284 19.284 0 0 1 133.385 22.52 A 28.56 28.56 0 0 1 139.5 21.9 A 28.071 28.071 0 0 1 146.145 22.643 A 19.146 19.146 0 0 1 155.3 27.65 Q 161.1 33.4 161.1 43.9 L 161.1 56.5 Q 161.1 65.567 156.654 71.138 A 18.093 18.093 0 0 1 155.25 72.7 Q 149.4 78.5 139.5 78.5 A 27.358 27.358 0 0 1 132.776 77.718 A 19.27 19.27 0 0 1 123.75 72.7 Q 118.046 67.045 117.904 57.015 A 36.375 36.375 0 0 1 117.9 56.5 Z M 537.9 56.5 L 537.9 43.9 A 30.497 30.497 0 0 1 538.555 37.382 Q 539.482 33.143 541.724 29.981 A 17.646 17.646 0 0 1 543.7 27.65 A 19.284 19.284 0 0 1 553.385 22.52 A 28.56 28.56 0 0 1 559.5 21.9 A 28.071 28.071 0 0 1 566.145 22.643 A 19.146 19.146 0 0 1 575.3 27.65 Q 581.1 33.4 581.1 43.9 L 581.1 56.5 Q 581.1 65.567 576.654 71.138 A 18.093 18.093 0 0 1 575.25 72.7 Q 569.4 78.5 559.5 78.5 A 27.358 27.358 0 0 1 552.776 77.718 A 19.27 19.27 0 0 1 543.75 72.7 Q 538.046 67.045 537.904 57.015 A 36.375 36.375 0 0 1 537.9 56.5 Z M 1257.9 56.5 L 1257.9 43.9 A 30.497 30.497 0 0 1 1258.555 37.382 Q 1259.482 33.143 1261.724 29.981 A 17.646 17.646 0 0 1 1263.7 27.65 A 19.284 19.284 0 0 1 1273.385 22.52 A 28.56 28.56 0 0 1 1279.5 21.9 A 28.071 28.071 0 0 1 1286.145 22.643 A 19.146 19.146 0 0 1 1295.3 27.65 Q 1301.1 33.4 1301.1 43.9 L 1301.1 56.5 Q 1301.1 65.567 1296.654 71.138 A 18.093 18.093 0 0 1 1295.25 72.7 Q 1289.4 78.5 1279.5 78.5 A 27.358 27.358 0 0 1 1272.776 77.718 A 19.27 19.27 0 0 1 1263.75 72.7 Q 1258.046 67.045 1257.904 57.015 A 36.375 36.375 0 0 1 1257.9 56.5 Z M 1497.9 56.5 L 1497.9 43.9 A 30.497 30.497 0 0 1 1498.555 37.382 Q 1499.482 33.143 1501.724 29.981 A 17.646 17.646 0 0 1 1503.7 27.65 A 19.284 19.284 0 0 1 1513.385 22.52 A 28.56 28.56 0 0 1 1519.5 21.9 A 28.071 28.071 0 0 1 1526.145 22.643 A 19.146 19.146 0 0 1 1535.3 27.65 Q 1541.1 33.4 1541.1 43.9 L 1541.1 56.5 Q 1541.1 65.567 1536.654 71.138 A 18.093 18.093 0 0 1 1535.25 72.7 Q 1529.4 78.5 1519.5 78.5 A 27.358 27.358 0 0 1 1512.776 77.718 A 19.27 19.27 0 0 1 1503.75 72.7 Q 1498.046 67.045 1497.904 57.015 A 36.375 36.375 0 0 1 1497.9 56.5 Z M 152.1 57.5 L 152.1 42.9 A 19.556 19.556 0 0 0 151.773 39.203 Q 151.053 35.469 148.75 33.2 Q 145.477 29.976 139.769 29.902 A 20.786 20.786 0 0 0 139.5 29.9 A 16.505 16.505 0 0 0 135.641 30.326 A 11.289 11.289 0 0 0 130.3 33.2 Q 126.9 36.5 126.9 42.9 L 126.9 57.5 Q 126.9 63.9 130.3 67.2 A 11.36 11.36 0 0 0 135.913 70.136 A 16.755 16.755 0 0 0 139.5 70.5 Q 144.735 70.5 147.962 67.903 A 10.536 10.536 0 0 0 148.75 67.2 Q 152.1 63.9 152.1 57.5 Z M 572.1 57.5 L 572.1 42.9 A 19.556 19.556 0 0 0 571.773 39.203 Q 571.053 35.469 568.75 33.2 Q 565.477 29.976 559.769 29.902 A 20.786 20.786 0 0 0 559.5 29.9 A 16.505 16.505 0 0 0 555.641 30.326 A 11.289 11.289 0 0 0 550.3 33.2 Q 546.9 36.5 546.9 42.9 L 546.9 57.5 Q 546.9 63.9 550.3 67.2 A 11.36 11.36 0 0 0 555.913 70.136 A 16.755 16.755 0 0 0 559.5 70.5 Q 564.735 70.5 567.962 67.903 A 10.536 10.536 0 0 0 568.75 67.2 Q 572.1 63.9 572.1 57.5 Z M 1292.1 57.5 L 1292.1 42.9 A 19.556 19.556 0 0 0 1291.773 39.203 Q 1291.053 35.469 1288.75 33.2 Q 1285.477 29.976 1279.769 29.902 A 20.786 20.786 0 0 0 1279.5 29.9 A 16.505 16.505 0 0 0 1275.641 30.326 A 11.289 11.289 0 0 0 1270.3 33.2 Q 1266.9 36.5 1266.9 42.9 L 1266.9 57.5 Q 1266.9 63.9 1270.3 67.2 A 11.36 11.36 0 0 0 1275.913 70.136 A 16.755 16.755 0 0 0 1279.5 70.5 Q 1284.735 70.5 1287.962 67.903 A 10.536 10.536 0 0 0 1288.75 67.2 Q 1292.1 63.9 1292.1 57.5 Z M 1532.1 57.5 L 1532.1 42.9 A 19.556 19.556 0 0 0 1531.773 39.203 Q 1531.053 35.469 1528.75 33.2 Q 1525.477 29.976 1519.769 29.902 A 20.786 20.786 0 0 0 1519.5 29.9 A 16.505 16.505 0 0 0 1515.641 30.326 A 11.289 11.289 0 0 0 1510.3 33.2 Q 1506.9 36.5 1506.9 42.9 L 1506.9 57.5 Q 1506.9 63.9 1510.3 67.2 A 11.36 11.36 0 0 0 1515.913 70.136 A 16.755 16.755 0 0 0 1519.5 70.5 Q 1524.735 70.5 1527.962 67.903 A 10.536 10.536 0 0 0 1528.75 67.2 Q 1532.1 63.9 1532.1 57.5 Z M 1831.3 53.2 L 1831.3 42.7 A 19.337 19.337 0 0 0 1830.926 38.777 Q 1830.431 36.389 1829.281 34.554 A 10.79 10.79 0 0 0 1828.1 33 A 10.524 10.524 0 0 0 1821.989 29.726 A 15.332 15.332 0 0 0 1819.3 29.5 Q 1813.6 29.5 1810.45 32.8 A 11.051 11.051 0 0 0 1807.672 38.122 A 16.278 16.278 0 0 0 1807.3 41.7 L 1807.3 54.2 A 16.14 16.14 0 0 0 1807.707 57.928 A 11.011 11.011 0 0 0 1810.45 63.1 Q 1813.565 66.364 1819.175 66.4 A 19.542 19.542 0 0 0 1819.3 66.4 A 14.449 14.449 0 0 0 1823.015 65.948 A 10.325 10.325 0 0 0 1828.1 62.9 A 11.59 11.59 0 0 0 1830.688 58.108 Q 1831.185 56.324 1831.278 54.199 A 22.777 22.777 0 0 0 1831.3 53.2 Z M 871.3 59.2 L 871.3 51.5 L 855.3 51.5 A 11.913 11.913 0 0 0 852.056 51.921 A 9.099 9.099 0 0 0 848.15 54.15 A 8.83 8.83 0 0 0 845.532 59.359 A 12.428 12.428 0 0 0 845.4 61.2 A 11.166 11.166 0 0 0 845.829 64.376 A 8.475 8.475 0 0 0 848.45 68.45 Q 851.5 71.1 856.9 71.1 Q 862.229 71.1 865.798 69.014 A 12.334 12.334 0 0 0 867.4 67.9 A 10.435 10.435 0 0 0 871.263 60.253 A 14.613 14.613 0 0 0 871.3 59.2 Z M 1876.88 78.378 A 10.107 10.107 0 0 0 1879.5 78.7 Q 1883.2 78.7 1885.45 76.5 A 7.188 7.188 0 0 0 1887.307 73.499 A 8.863 8.863 0 0 0 1887.7 70.8 A 10.807 10.807 0 0 0 1887.592 69.248 A 7.778 7.778 0 0 0 1885.45 64.8 A 7.34 7.34 0 0 0 1882.169 62.851 A 9.656 9.656 0 0 0 1879.5 62.5 A 10.528 10.528 0 0 0 1877.951 62.61 A 7.521 7.521 0 0 0 1873.55 64.8 Q 1871.3 67.1 1871.3 70.8 Q 1871.3 74.3 1873.55 76.5 A 7.421 7.421 0 0 0 1876.88 78.378 Z M 1698.897 12.599 A 10.363 10.363 0 0 0 1701 12.8 Q 1702.399 12.8 1703.546 12.495 A 6.366 6.366 0 0 0 1706.2 11.1 A 5.458 5.458 0 0 0 1707.822 8.545 A 7.134 7.134 0 0 0 1708.1 6.5 A 8.273 8.273 0 0 0 1708.002 5.205 A 5.777 5.777 0 0 0 1706.2 1.75 Q 1704.3 0 1701 0 A 12.051 12.051 0 0 0 1700.668 0.005 Q 1697.604 0.089 1695.8 1.75 A 5.644 5.644 0 0 0 1694.167 4.426 A 7.635 7.635 0 0 0 1693.9 6.5 A 7.916 7.916 0 0 0 1693.967 7.546 A 5.595 5.595 0 0 0 1695.8 11.1 A 5.917 5.917 0 0 0 1696.56 11.677 Q 1697.574 12.325 1698.897 12.599 Z" vector-effect="non-scaling-stroke"/></g></svg>